# xmcd
#
# Track frame offsets:
# 150
# 14319
# 29152
# 40377
# 60636
# 74821
# 90796
# 109492
# 128423
# 143802
# 154436
# 163151
# 184813
#
# Disc length: 2737 seconds
#
#
# Revision: 1
# Processed by: cddbd v1.5.2PL0 Copyright (c) Steve Scherf et al.
# Submitted via: FreeRIP 2.951 
#
DISCID=bb0aaf0d
DTITLE=Various Artist - A Musica do Seculo - Vol. 48
DYEAR=1900
DGENRE=Blues
TTITLE0=George McRae - Rock Your Babe
TTITLE1=Middle Of The Road - Soley, Soley
TTITLE2=The Equals - Baby, Come Back
TTITLE3=Bob Marley - Don't Rock My Boat
TTITLE4=The Flying Machine - Smile a Little Smile for Me
TTITLE5=Bread - Guitar Man
TTITLE6=Lobo - I'd Love You To Want Me
TTITLE7=Marmelade - Reflections Of My Life
TTITLE8=The Fortunes - That Same Old Feelings
TTITLE9=Frankie Laine - A Woman In Love
TTITLE10=Carl Perkins - Everybody's Trying To Me Baby
TTITLE11=Little Richard - Hound Dog
TTITLE12=Bamboles e Outros Modismos
EXTD=
EXTT0=
EXTT1=
EXTT2=
EXTT3=
EXTT4=
EXTT5=
EXTT6=
EXTT7=
EXTT8=
EXTT9=
EXTT10=
EXTT11=
EXTT12=
PLAYORDER=
